<svg width="334" height="118" viewBox="0 0 334 118" fill="none" xmlns="http://www.w3.org/2000/svg">
<g clip-path="url(#clip0_30_175)">
<rect width="334" height="118" rx="30" fill="url(#paint0_linear_30_175)"/>
<path fill-rule="evenodd" clip-rule="evenodd" d="M334.516 -61.6635C327.755 -54.9191 319.36 -45.6737 316.702 -35.1802C315.871 -31.901 315.6 -28.4986 316.113 -25.0129C315.553 -22.5455 315.316 -20.0106 315.496 -17.4251C315.429 -17.1865 315.365 -16.9472 315.304 -16.7073C314.832 -14.8432 314.541 -12.9393 314.472 -11.0028C314.153 -10.0971 313.873 -9.18081 313.639 -8.25481C313.569 -7.97766 313.502 -7.69964 313.44 -7.42076C307.277 -0.994805 300.58 7.21779 298.258 16.3824C296.927 21.6383 297.033 27.211 299.503 32.9354C301.972 38.6571 306.794 44.5081 314.854 50.338C333.631 63.9195 351.102 64.6009 364.506 65.1236C365.751 65.1721 366.96 65.2193 368.133 65.2753C375.053 65.606 380.594 66.2445 384.45 69.1875C388.286 72.115 390.528 77.3906 390.641 87.1987L391.23 87.2126C391.117 77.3553 388.866 71.8574 384.812 68.763C380.778 65.684 375.033 65.052 368.142 64.7227C366.967 64.6666 365.757 64.6193 364.513 64.5706C351.115 64.0468 333.821 63.3705 315.202 49.904C307.206 44.1198 302.466 38.3467 300.048 32.7435C297.631 27.1429 297.524 21.69 298.831 16.5287C301.038 7.81849 307.27 -0.0502673 313.223 -6.34749L313.217 -6.31736C313.066 -5.98484 312.919 -5.65068 312.777 -5.31491C308.671 -0.207536 305.04 5.61082 303.454 11.8738C302.122 17.1297 302.228 22.7024 304.699 28.4267C307.168 34.1484 311.989 39.9994 320.049 45.8293C338.827 59.4109 356.298 60.0922 369.701 60.615C370.946 60.6635 372.156 60.7107 373.328 60.7667C380.248 61.0973 385.79 61.7358 389.646 64.6788C393.481 67.6064 395.724 72.8819 395.837 82.6901L396.426 82.704C396.312 72.8467 394.061 67.3488 390.007 64.2544C385.973 61.1754 380.229 60.5433 373.337 60.2141C372.163 60.158 370.953 60.1106 369.709 60.062C356.311 59.5381 339.016 58.8619 320.398 45.3954C312.401 39.6112 307.661 33.8381 305.243 28.2349C302.826 22.6343 302.719 17.1814 304.027 12.0201C305.326 6.8944 308.018 2.06012 311.227 -2.33401C309.732 0.396816 308.527 3.25478 307.778 6.21189C306.447 11.4678 306.553 17.0405 309.023 22.7648C311.492 28.4865 316.314 34.3375 324.374 40.1674C343.151 53.749 360.622 54.4303 374.026 54.9531L374.027 54.9531L374.027 54.9531L374.032 54.9533L374.035 54.9534C375.277 55.0019 376.483 55.0489 377.653 55.1048C384.573 55.4354 390.114 56.0739 393.97 59.0169C397.806 61.9445 400.048 67.22 400.161 77.0282L400.75 77.0421C400.637 67.1848 398.386 61.6869 394.332 58.5925C390.298 55.5135 384.553 54.8814 377.662 54.5522C376.487 54.4961 375.277 54.4487 374.033 54.4001C360.635 53.8762 343.341 53.2 324.723 39.7335C316.726 33.9493 311.986 28.1762 309.568 22.573C307.151 16.9724 307.044 11.5195 308.351 6.3582C309.027 3.69017 310.081 1.1011 311.389 -1.38804C311.31 -1.10971 311.234 -0.830471 311.163 -0.550343C309.832 4.70553 309.938 10.2783 312.408 16.0026C314.878 21.7243 319.699 27.5753 327.759 33.4052C346.536 46.9868 364.007 47.6681 377.411 48.1908L377.413 48.1909C378.657 48.2394 379.866 48.2866 381.038 48.3426C387.958 48.6732 393.5 49.3117 397.356 52.2547C401.191 55.1823 403.434 60.4578 403.547 70.2659L404.136 70.2799C404.022 60.4225 401.771 54.9247 397.717 51.8302C393.683 48.7513 387.939 48.1192 381.047 47.7899C379.872 47.7338 378.662 47.6865 377.419 47.6379C364.021 47.114 346.726 46.4378 328.108 32.9713C320.111 27.1871 315.371 21.414 312.953 15.8107C310.536 10.2102 310.429 4.75723 311.737 -0.404034C312.049 -1.63723 312.442 -2.85355 312.904 -4.05095C312.526 -0.0611734 313.062 4.07727 314.884 8.29815C317.353 14.0198 322.174 19.8708 330.234 25.7007C349.012 39.2823 366.483 39.9636 379.887 40.4864C381.131 40.5349 382.341 40.5821 383.513 40.6381C390.434 40.9687 395.975 41.6072 399.831 44.5503C403.666 47.4778 405.909 52.7533 406.022 62.5615L406.611 62.5754C406.497 52.7181 404.246 47.2202 400.192 44.1258C396.158 41.0468 390.414 40.4147 383.522 40.0855C382.348 40.0294 381.138 39.982 379.894 39.9334C366.496 39.4096 349.201 38.7333 330.583 25.2668C322.586 19.4826 317.847 13.7095 315.428 8.10627C313.458 3.54022 313.023 -0.927705 313.638 -5.21945C313.889 -5.60671 314.144 -5.99103 314.405 -6.37233C314.5 -6.48578 314.596 -6.59888 314.691 -6.71159C314.993 -4.55483 315.595 -2.36592 316.549 -0.154374C319.019 5.56731 323.84 11.4183 331.9 17.2482C350.677 30.8298 368.148 31.5111 381.552 32.0339C382.797 32.0824 384.007 32.1296 385.179 32.1856C392.099 32.5162 397.641 33.1547 401.497 36.0977C405.332 39.0253 407.575 44.3008 407.688 54.109L408.277 54.1229C408.163 44.2656 405.912 38.7677 401.858 35.6733C397.824 32.5943 392.08 31.9622 385.188 31.633C384.013 31.5768 382.803 31.5295 381.56 31.4809C368.162 30.957 350.867 30.2808 332.249 16.8143C324.252 11.0301 319.512 5.25697 317.094 -0.346245C316.079 -2.69739 315.472 -5.02251 315.205 -7.31096C315.906 -8.12082 316.613 -8.91048 317.32 -9.67874C317.388 -9.51162 317.458 -9.34437 317.531 -9.17699C320 -3.45531 324.821 2.39571 332.881 8.22558C351.658 21.8072 369.13 22.4885 382.533 23.0112L382.536 23.0113L382.539 23.0114L382.544 23.0116L382.549 23.0118C383.789 23.0602 384.993 23.1072 386.16 23.163C393.08 23.4936 398.622 24.1321 402.478 27.0751C406.313 30.0027 408.556 35.2782 408.669 45.0864L409.258 45.1003C409.144 35.2429 406.893 29.7451 402.839 26.6506C398.805 23.5717 393.061 22.9396 386.169 22.6103C384.995 22.5542 383.784 22.5069 382.541 22.4583C369.143 21.9344 351.848 21.2582 333.23 7.79167C325.233 2.00747 320.493 -3.76565 318.075 -9.36887C317.963 -9.62873 317.856 -9.88828 317.754 -10.1475C318.804 -11.2761 319.85 -12.3569 320.87 -13.3859C323.641 -9.35581 327.684 -5.2851 333.298 -1.22464C352.075 12.357 369.546 13.0383 382.95 13.561C384.194 13.6096 385.404 13.6567 386.576 13.7127C393.497 14.0434 399.038 14.6819 402.894 17.6249C406.729 20.5524 408.972 25.828 409.085 35.6361L409.674 35.65C409.56 25.7927 407.309 20.2948 403.255 17.2004C399.221 14.1214 393.477 13.4894 386.585 13.1601C385.411 13.104 384.201 13.0567 382.957 13.0081C369.559 12.4842 352.264 11.8079 333.646 -1.65856C328.019 -5.72842 324.005 -9.79279 321.278 -13.7964L321.462 -13.9815L321.704 -14.2225L321.268 -14.6095C321.162 -14.5035 321.055 -14.3968 320.948 -14.2895C320.912 -14.3451 320.875 -14.4008 320.839 -14.4564C322.59 -16.4006 324.356 -18.2161 326.028 -19.8844L325.593 -20.2714C323.961 -18.6435 322.233 -16.8698 320.515 -14.9681C320.295 -15.3212 320.086 -15.6738 319.886 -16.0258C322.924 -19.9898 326.328 -23.5687 329.413 -26.6467L328.978 -27.0336C325.951 -24.0143 322.597 -20.4938 319.577 -16.5844C319.251 -17.1866 318.954 -17.7872 318.683 -18.3859C322.399 -24.5081 327.47 -29.9434 331.889 -34.3511L331.453 -34.7381C327.126 -30.4215 322.129 -25.0804 318.396 -19.0433C318.063 -19.8344 317.776 -20.6225 317.532 -21.4072C321.101 -29.7571 327.868 -37.1312 333.554 -42.8037L333.119 -43.1906C327.585 -37.6707 320.957 -30.4754 317.276 -22.2917C317.033 -23.1904 316.846 -24.0844 316.711 -24.9732C316.758 -25.1771 316.807 -25.3806 316.859 -25.5836C319.479 -35.9244 327.772 -45.0791 334.536 -51.8263L334.1 -52.2133C327.528 -45.657 319.411 -36.7372 316.521 -26.6049C316.287 -29.4822 316.582 -32.299 317.275 -35.0339C319.895 -45.3746 328.188 -54.5293 334.952 -61.2765L334.516 -61.6635ZM314.565 -7.74686C314.494 -7.60931 314.425 -7.47146 314.356 -7.33332C314.43 -7.43873 314.504 -7.5439 314.579 -7.64881L314.569 -7.75086L314.565 -7.74686ZM316.271 -9.92485C316.483 -10.1987 316.697 -10.4707 316.912 -10.7407C316.829 -10.9724 316.75 -11.2039 316.674 -11.435C316.291 -10.8284 315.922 -10.2149 315.567 -9.5946C315.736 -9.76488 315.905 -9.93365 316.073 -10.1009L316.271 -9.92485ZM320.538 -13.8775C319.927 -13.2614 319.304 -12.6257 318.676 -11.9715C319.261 -12.6676 319.852 -13.3497 320.446 -14.0171L320.506 -13.9258L320.538 -13.8775ZM320.118 -14.5269C319.907 -14.8621 319.705 -15.197 319.511 -15.5316C318.664 -14.4072 317.85 -13.2528 317.081 -12.0708C317.162 -11.8048 317.248 -11.5384 317.34 -11.2716C318.25 -12.3925 319.182 -13.4786 320.118 -14.5269ZM314.411 -8.72306L314.337 -8.58501C314.382 -8.75153 314.429 -8.91774 314.477 -9.08364C314.48 -9.0107 314.483 -8.93772 314.487 -8.8647L314.411 -8.72306ZM316.445 -12.1698C315.959 -11.4141 315.491 -10.6469 315.045 -9.86909C315.042 -10.2091 315.046 -10.5482 315.057 -10.8863C315.368 -11.7613 315.716 -12.6266 316.097 -13.4815C316.2 -13.0454 316.316 -12.6081 316.445 -12.1698ZM319.196 -16.0872C318.389 -15.0235 317.608 -13.9319 316.867 -12.8145C316.726 -13.331 316.605 -13.846 316.501 -14.3594C317.054 -15.5232 317.666 -16.6667 318.326 -17.7878C318.592 -17.2221 318.882 -16.6552 319.196 -16.0872ZM318.028 -18.4399C318.001 -18.5023 317.974 -18.5648 317.947 -18.6272C317.665 -19.2809 317.413 -19.9326 317.192 -20.5821C316.768 -19.5202 316.398 -18.4431 316.09 -17.3523C316.139 -16.6851 316.216 -16.0146 316.323 -15.341C316.849 -16.392 317.42 -17.4255 318.028 -18.4399ZM315.889 -14.4449C315.806 -14.8681 315.735 -15.2901 315.676 -15.7109C315.471 -14.7852 315.312 -13.8505 315.205 -12.9075C315.421 -13.4238 315.649 -13.9363 315.889 -14.4449ZM316.911 -21.4545C316.588 -20.689 316.292 -19.9151 316.026 -19.1334C316.027 -20.583 316.158 -22.0157 316.4 -23.4287C316.541 -22.7732 316.711 -22.1151 316.911 -21.4545ZM292.347 19.8258C295.006 9.33223 303.401 0.0868259 310.162 -6.65754L310.597 -6.27056C303.833 0.476598 295.54 9.63133 292.92 19.9721C291.613 25.1333 291.72 30.5863 294.137 36.1868C296.555 41.7901 301.295 47.5632 309.292 53.3474C327.91 66.8139 345.204 67.4901 358.602 68.014C359.846 68.0626 361.056 68.1099 362.231 68.166C369.122 68.4953 374.867 69.1274 378.901 72.2064C382.955 75.3008 385.206 80.7986 385.319 90.656L384.731 90.642C384.617 80.8339 382.375 75.5584 378.539 72.6308C374.684 69.6878 369.142 69.0493 362.222 68.7187C361.049 68.6627 359.84 68.6155 358.595 68.5669C345.191 68.0442 327.72 67.3629 308.943 53.7813C300.883 47.9514 296.061 42.1004 293.592 36.3787C291.122 30.6544 291.016 25.0816 292.347 19.8258ZM303.726 -4.08031C296.965 2.66406 288.57 11.9095 285.912 22.403C284.58 27.6589 284.686 33.2316 287.156 38.9559C289.626 44.6776 294.447 50.5287 302.507 56.3585C321.284 69.9401 338.755 70.6214 352.159 71.1442L352.159 71.1442C353.404 71.1927 354.614 71.2399 355.786 71.2959C362.706 71.6265 368.248 72.265 372.104 75.208C375.939 78.1356 378.182 83.4111 378.295 93.2193L378.884 93.2332C378.77 83.3759 376.519 77.878 372.465 74.7836C368.431 71.7046 362.687 71.0725 355.795 70.7433C354.621 70.6872 353.41 70.6398 352.167 70.5912C338.769 70.0674 321.474 69.3911 302.856 55.9246C294.859 50.1404 290.119 44.3673 287.701 38.7641C285.284 33.1635 285.177 27.7106 286.485 22.5493C289.105 12.2086 297.398 3.05383 304.162 -3.69333L303.726 -4.08031ZM279.127 24.3579C281.786 13.8644 290.181 4.61897 296.942 -2.1254L297.377 -1.73842C290.613 5.00874 282.32 14.1635 279.7 24.5042C278.393 29.6655 278.5 35.1184 280.917 40.719C283.335 46.3222 288.075 52.0953 296.071 57.8795C314.689 71.346 331.984 72.0223 345.382 72.5461C346.626 72.5948 347.836 72.6421 349.01 72.6982C355.902 73.0274 361.647 73.6595 365.681 76.7385C369.735 79.8329 371.986 85.3308 372.099 95.1881L371.51 95.1742C371.397 85.3661 369.155 80.0905 365.319 77.163C361.463 74.2199 355.922 73.5814 349.002 73.2508C347.829 73.1948 346.62 73.1476 345.375 73.0991C331.971 72.5764 314.5 71.895 295.723 58.3134C287.663 52.4836 282.841 46.6325 280.372 40.9109C277.902 35.1865 277.795 29.6138 279.127 24.3579ZM289.952 -0.557702C283.191 6.18667 274.796 15.4321 272.138 25.9256C270.806 31.1815 270.912 36.7542 273.383 42.4786C275.852 48.2002 280.673 54.0513 288.734 59.8811C307.511 73.4627 324.982 74.1441 338.386 74.6668C339.63 74.7153 340.84 74.7625 342.012 74.8185C348.933 75.1491 354.474 75.7876 358.33 78.7307C362.165 81.6582 364.408 86.9337 364.521 96.7419L365.11 96.7558C364.996 86.8985 362.745 81.4006 358.691 78.3062C354.657 75.2272 348.913 74.5951 342.021 74.2659C340.847 74.2098 339.637 74.1625 338.393 74.1138C324.995 73.59 307.7 72.9137 289.082 59.4472C281.085 53.663 276.346 47.8899 273.927 42.2867C271.511 36.6861 271.403 31.2332 272.711 26.0719C275.331 15.7312 283.624 6.57644 290.388 -0.17072L289.952 -0.557702ZM265.051 27.3041C267.71 16.8106 276.105 7.56518 282.866 0.820812L283.301 1.20779C276.538 7.95495 268.244 17.1097 265.625 27.4504C264.317 32.6117 264.424 38.0646 266.841 43.6652C269.259 49.2684 273.999 55.0415 281.996 60.8257C300.614 74.2922 317.909 74.9685 331.307 75.4923C332.55 75.541 333.76 75.5883 334.935 75.6444C341.827 75.9737 347.571 76.6057 351.605 79.6847C355.659 82.7791 357.91 88.277 358.024 98.1343L357.435 98.1204C357.322 88.3123 355.079 83.0367 351.243 80.1092C347.388 77.1662 341.846 76.5276 334.926 76.197C333.754 76.141 332.544 76.0938 331.299 76.0453C317.895 75.5226 300.424 74.8412 281.647 61.2597C273.587 55.4298 268.765 49.5788 266.296 43.8571C263.826 38.1327 263.72 32.56 265.051 27.3041ZM275.764 2.16757C269.003 8.91193 260.608 18.1573 257.95 28.6509C256.618 33.9067 256.724 39.4795 259.195 45.2038C261.664 50.9255 266.485 56.7765 274.545 62.6064C293.323 76.188 310.794 76.8693 324.198 77.3921C325.442 77.4406 326.652 77.4878 327.824 77.5438C334.744 77.8744 340.286 78.5129 344.142 81.4559C347.977 84.3835 350.22 89.659 350.333 99.4672L350.922 99.4811C350.808 89.6238 348.557 84.1259 344.503 81.0315C340.469 77.9525 334.725 77.3204 327.833 76.9911C326.659 76.935 325.449 76.8877 324.205 76.8391C310.807 76.3152 293.512 75.639 274.894 62.1725C266.897 56.3883 262.158 50.6152 259.739 45.0119C257.323 39.4114 257.215 33.9584 258.523 28.7972C261.143 18.4564 269.436 9.3017 276.2 2.55455L275.764 2.16757ZM250.891 30.084C253.549 19.5904 261.944 10.345 268.705 3.60068L269.141 3.98766C262.377 10.7348 254.084 19.8896 251.464 30.2303C250.156 35.3916 250.264 40.8445 252.68 46.4451C255.099 52.0483 259.838 57.8214 267.835 63.6056C286.453 77.0721 303.748 77.7483 317.146 78.2722C318.39 78.3208 319.6 78.3682 320.774 78.4243C327.666 78.7535 333.41 79.3856 337.444 82.4646C341.498 85.559 343.749 91.0569 343.863 100.914L343.274 100.9C343.161 91.0921 340.918 85.8166 337.083 82.889C333.227 79.946 327.686 79.3075 320.765 78.9769C319.593 78.9209 318.383 78.8737 317.139 78.8252C303.735 78.3024 286.264 77.6211 267.487 64.0395C259.426 58.2096 254.605 52.3586 252.136 46.6369C249.665 40.9126 249.559 35.3399 250.891 30.084ZM261.736 5.20689C254.975 11.9513 246.58 21.1967 243.921 31.6902C242.59 36.9461 242.696 42.5188 245.166 48.2431C247.636 53.9648 252.457 59.8158 260.517 65.6457C279.294 79.2273 296.765 79.9086 310.169 80.4314L310.169 80.4314C311.414 80.4799 312.624 80.5271 313.796 80.5831C320.716 80.9137 326.258 81.5522 330.114 84.4953C333.949 87.4228 336.192 92.6983 336.305 102.506L336.894 102.52C336.78 92.6631 334.529 87.1652 330.475 84.0708C326.441 80.9918 320.697 80.3597 313.805 80.0305C312.63 79.9744 311.42 79.927 310.177 79.8784C296.779 79.3546 279.484 78.6783 260.866 65.2118C252.869 59.4276 248.129 53.6545 245.711 48.0513C243.294 42.4507 243.187 36.9978 244.495 31.8365C247.115 21.4958 255.408 12.341 262.171 5.59387L261.736 5.20689ZM237.075 33.5295C239.734 23.036 248.129 13.7906 254.89 7.04624L255.325 7.43322C248.562 14.1804 240.268 23.3351 237.649 33.6759C236.341 38.8371 236.448 44.2901 238.865 49.8906C241.283 55.4938 246.023 61.267 254.02 67.0512C272.638 80.5177 289.933 81.1939 303.33 81.7178C304.574 81.7664 305.784 81.8137 306.959 81.8698C313.85 82.1991 319.595 82.8312 323.629 85.9101C327.683 89.0046 329.934 94.5024 330.048 104.36L329.459 104.346C329.346 94.5377 327.103 89.2622 323.267 86.3346C319.412 83.3916 313.87 82.7531 306.95 82.4225C305.778 82.3664 304.568 82.3193 303.323 82.2707L303.323 82.2707C289.919 81.748 272.448 81.0667 253.671 67.4851C245.611 61.6552 240.789 55.8042 238.32 50.0825C235.85 44.3582 235.744 38.7854 237.075 33.5295ZM248.191 9.15866C241.43 15.903 233.035 25.1484 230.377 35.642C229.045 40.8978 229.151 46.4706 231.622 52.1949C234.091 57.9166 238.912 63.7676 246.972 69.5975C265.749 83.1791 283.221 83.8604 296.624 84.3832L296.624 84.3831L296.624 84.3831C297.869 84.4317 299.079 84.4789 300.251 84.5349C307.171 84.8655 312.713 85.504 316.569 88.447C320.404 91.3746 322.647 96.6501 322.76 106.458L323.349 106.472C323.235 96.6148 320.984 91.117 316.93 88.0226C312.896 84.9436 307.152 84.3115 300.26 83.9822C299.086 83.9261 297.875 83.8788 296.632 83.8302C283.234 83.3063 265.939 82.6301 247.321 69.1636C239.324 63.3794 234.584 57.6063 232.166 52.003C229.749 46.4025 229.642 40.9495 230.95 35.7883C233.57 25.4475 241.863 16.2928 248.627 9.54564L248.191 9.15866Z" fill="url(#paint1_radial_30_175)" fill-opacity="0.58"/>
<path d="M19.7227 15.8906H22.2373C22.7777 15.8906 23.2383 15.972 23.6191 16.1348C24 16.2975 24.2913 16.5384 24.4932 16.8574C24.6982 17.1732 24.8008 17.5638 24.8008 18.0293C24.8008 18.3841 24.7357 18.6966 24.6055 18.9668C24.4753 19.237 24.2913 19.4648 24.0537 19.6504C23.8161 19.8327 23.5329 19.9743 23.2041 20.0752L22.833 20.2559H20.5723L20.5625 19.2842H22.2568C22.5498 19.2842 22.7939 19.2321 22.9893 19.1279C23.1846 19.0238 23.3311 18.8822 23.4287 18.7031C23.5296 18.5208 23.5801 18.3158 23.5801 18.0879C23.5801 17.8405 23.5312 17.6257 23.4336 17.4434C23.3392 17.2578 23.1927 17.1162 22.9941 17.0186C22.7956 16.9176 22.5433 16.8672 22.2373 16.8672H20.9482V23H19.7227V15.8906ZM23.7803 23L22.1104 19.8066L23.3945 19.8018L25.0889 22.9365V23H23.7803ZM28.2334 23.0977C27.8428 23.0977 27.4896 23.0342 27.1738 22.9072C26.8613 22.777 26.5944 22.5964 26.373 22.3652C26.1549 22.1341 25.9873 21.8623 25.8701 21.5498C25.7529 21.2373 25.6943 20.9004 25.6943 20.5391V20.3438C25.6943 19.9303 25.7546 19.556 25.875 19.2207C25.9954 18.8854 26.1631 18.599 26.3779 18.3613C26.5928 18.1204 26.8467 17.9365 27.1396 17.8096C27.4326 17.6826 27.75 17.6191 28.0918 17.6191C28.4694 17.6191 28.7998 17.6826 29.083 17.8096C29.3662 17.9365 29.6006 18.1156 29.7861 18.3467C29.9749 18.5745 30.1149 18.8464 30.2061 19.1621C30.3005 19.4779 30.3477 19.8262 30.3477 20.207V20.71H26.2656V19.8652H29.1855V19.7725C29.179 19.5609 29.1367 19.3623 29.0586 19.1768C28.9837 18.9912 28.8682 18.8415 28.7119 18.7275C28.5557 18.6136 28.3473 18.5566 28.0869 18.5566C27.8916 18.5566 27.7174 18.599 27.5645 18.6836C27.4147 18.765 27.2894 18.8838 27.1885 19.04C27.0876 19.1963 27.0094 19.3851 26.9541 19.6064C26.902 19.8245 26.876 20.0703 26.876 20.3438V20.5391C26.876 20.7702 26.9069 20.985 26.9688 21.1836C27.0339 21.3789 27.1283 21.5498 27.252 21.6963C27.3757 21.8428 27.5254 21.9583 27.7012 22.043C27.877 22.1243 28.0771 22.165 28.3018 22.165C28.585 22.165 28.8372 22.1081 29.0586 21.9941C29.2799 21.8802 29.472 21.7191 29.6348 21.5107L30.2549 22.1113C30.141 22.2773 29.9928 22.4368 29.8105 22.5898C29.6283 22.7396 29.4053 22.8617 29.1416 22.9561C28.8812 23.0505 28.5785 23.0977 28.2334 23.0977ZM32.4424 18.791V23H31.2656V17.7168H32.374L32.4424 18.791ZM32.252 20.1631L31.8516 20.1582C31.8516 19.7936 31.8971 19.4567 31.9883 19.1475C32.0794 18.8382 32.2129 18.5697 32.3887 18.3418C32.5645 18.1107 32.7826 17.9333 33.043 17.8096C33.3066 17.6826 33.611 17.6191 33.9561 17.6191C34.1969 17.6191 34.4167 17.6549 34.6152 17.7266C34.8171 17.7949 34.9912 17.904 35.1377 18.0537C35.2874 18.2035 35.4014 18.3955 35.4795 18.6299C35.5609 18.8643 35.6016 19.1475 35.6016 19.4795V23H34.4248V19.582C34.4248 19.3249 34.3857 19.123 34.3076 18.9766C34.2327 18.8301 34.1237 18.7259 33.9805 18.6641C33.8405 18.599 33.6729 18.5664 33.4775 18.5664C33.2562 18.5664 33.0674 18.6087 32.9111 18.6934C32.7581 18.778 32.6328 18.8936 32.5352 19.04C32.4375 19.1865 32.3659 19.3558 32.3203 19.5479C32.2747 19.7399 32.252 19.945 32.252 20.1631ZM35.5283 19.8506L34.9766 19.9727C34.9766 19.6536 35.0205 19.3525 35.1084 19.0693C35.1995 18.7829 35.3314 18.5322 35.5039 18.3174C35.6797 18.0993 35.8962 17.9284 36.1533 17.8047C36.4105 17.681 36.7051 17.6191 37.0371 17.6191C37.3073 17.6191 37.5482 17.6566 37.7598 17.7314C37.9746 17.8031 38.1569 17.917 38.3066 18.0732C38.4564 18.2295 38.5703 18.4329 38.6484 18.6836C38.7266 18.931 38.7656 19.2305 38.7656 19.582V23H37.584V19.5771C37.584 19.3102 37.5449 19.1035 37.4668 18.957C37.3919 18.8105 37.2845 18.7096 37.1445 18.6543C37.0046 18.5957 36.8369 18.5664 36.6416 18.5664C36.4593 18.5664 36.2982 18.6006 36.1582 18.6689C36.0215 18.734 35.9059 18.8268 35.8115 18.9473C35.7171 19.0645 35.6455 19.1995 35.5967 19.3525C35.5511 19.5055 35.5283 19.6715 35.5283 19.8506ZM42.3057 23.0977C41.915 23.0977 41.5618 23.0342 41.2461 22.9072C40.9336 22.777 40.6667 22.5964 40.4453 22.3652C40.2272 22.1341 40.0596 21.8623 39.9424 21.5498C39.8252 21.2373 39.7666 20.9004 39.7666 20.5391V20.3438C39.7666 19.9303 39.8268 19.556 39.9473 19.2207C40.0677 18.8854 40.2354 18.599 40.4502 18.3613C40.665 18.1204 40.9189 17.9365 41.2119 17.8096C41.5049 17.6826 41.8223 17.6191 42.1641 17.6191C42.5417 17.6191 42.8721 17.6826 43.1553 17.8096C43.4385 17.9365 43.6729 18.1156 43.8584 18.3467C44.0472 18.5745 44.1872 18.8464 44.2783 19.1621C44.3727 19.4779 44.4199 19.8262 44.4199 20.207V20.71H40.3379V19.8652H43.2578V19.7725C43.2513 19.5609 43.209 19.3623 43.1309 19.1768C43.056 18.9912 42.9404 18.8415 42.7842 18.7275C42.6279 18.6136 42.4196 18.5566 42.1592 18.5566C41.9639 18.5566 41.7897 18.599 41.6367 18.6836C41.487 18.765 41.3617 18.8838 41.2607 19.04C41.1598 19.1963 41.0817 19.3851 41.0264 19.6064C40.9743 19.8245 40.9482 20.0703 40.9482 20.3438V20.5391C40.9482 20.7702 40.9792 20.985 41.041 21.1836C41.1061 21.3789 41.2005 21.5498 41.3242 21.6963C41.4479 21.8428 41.5977 21.9583 41.7734 22.043C41.9492 22.1243 42.1494 22.165 42.374 22.165C42.6572 22.165 42.9095 22.1081 43.1309 21.9941C43.3522 21.8802 43.5443 21.7191 43.707 21.5107L44.3271 22.1113C44.2132 22.2773 44.0651 22.4368 43.8828 22.5898C43.7005 22.7396 43.4775 22.8617 43.2139 22.9561C42.9535 23.0505 42.6507 23.0977 42.3057 23.0977ZM45.3428 15.5H46.5195V21.8721L46.4072 23H45.3428V15.5ZM49.9668 20.3096V20.4121C49.9668 20.8027 49.9229 21.1624 49.835 21.4912C49.7503 21.8167 49.6201 22.0999 49.4443 22.3408C49.2718 22.5817 49.057 22.7689 48.7998 22.9023C48.5459 23.0326 48.2513 23.0977 47.916 23.0977C47.5872 23.0977 47.3008 23.0358 47.0566 22.9121C46.8125 22.7884 46.6074 22.6126 46.4414 22.3848C46.2786 22.1569 46.1468 21.8851 46.0459 21.5693C45.945 21.2536 45.8734 20.9053 45.8311 20.5244V20.1973C45.8734 19.8132 45.945 19.4648 46.0459 19.1523C46.1468 18.8366 46.2786 18.5648 46.4414 18.3369C46.6074 18.1058 46.8109 17.9284 47.0518 17.8047C47.2959 17.681 47.5807 17.6191 47.9062 17.6191C48.2448 17.6191 48.5426 17.6842 48.7998 17.8145C49.0602 17.9447 49.2767 18.1302 49.4492 18.3711C49.6217 18.6087 49.7503 18.8919 49.835 19.2207C49.9229 19.5495 49.9668 19.9124 49.9668 20.3096ZM48.79 20.4121V20.3096C48.79 20.0719 48.7705 19.849 48.7314 19.6406C48.6924 19.429 48.6273 19.2435 48.5361 19.084C48.4482 18.9245 48.3278 18.7992 48.1748 18.708C48.0251 18.6136 47.8379 18.5664 47.6133 18.5664C47.4049 18.5664 47.2259 18.6022 47.0762 18.6738C46.9264 18.7454 46.8011 18.8431 46.7002 18.9668C46.5993 19.0905 46.5195 19.2337 46.4609 19.3965C46.4056 19.5592 46.3682 19.735 46.3486 19.9238V20.8076C46.3779 21.0518 46.4398 21.2764 46.5342 21.4814C46.6318 21.6833 46.7686 21.846 46.9443 21.9697C47.1201 22.0902 47.3464 22.1504 47.623 22.1504C47.8411 22.1504 48.0251 22.1064 48.1748 22.0186C48.3245 21.9307 48.4434 21.8086 48.5312 21.6523C48.6224 21.4928 48.6875 21.3073 48.7266 21.0957C48.7689 20.8841 48.79 20.6562 48.79 20.4121ZM53.292 23.0977C52.9014 23.0977 52.5482 23.0342 52.2324 22.9072C51.9199 22.777 51.653 22.5964 51.4316 22.3652C51.2135 22.1341 51.0459 21.8623 50.9287 21.5498C50.8115 21.2373 50.7529 20.9004 50.7529 20.5391V20.3438C50.7529 19.9303 50.8132 19.556 50.9336 19.2207C51.054 18.8854 51.2217 18.599 51.4365 18.3613C51.6514 18.1204 51.9053 17.9365 52.1982 17.8096C52.4912 17.6826 52.8086 17.6191 53.1504 17.6191C53.528 17.6191 53.8584 17.6826 54.1416 17.8096C54.4248 17.9365 54.6592 18.1156 54.8447 18.3467C55.0335 18.5745 55.1735 18.8464 55.2646 19.1621C55.359 19.4779 55.4062 19.8262 55.4062 20.207V20.71H51.3242V19.8652H54.2441V19.7725C54.2376 19.5609 54.1953 19.3623 54.1172 19.1768C54.0423 18.9912 53.9268 18.8415 53.7705 18.7275C53.6143 18.6136 53.4059 18.5566 53.1455 18.5566C52.9502 18.5566 52.776 18.599 52.623 18.6836C52.4733 18.765 52.348 18.8838 52.2471 19.04C52.1462 19.1963 52.068 19.3851 52.0127 19.6064C51.9606 19.8245 51.9346 20.0703 51.9346 20.3438V20.5391C51.9346 20.7702 51.9655 20.985 52.0273 21.1836C52.0924 21.3789 52.1868 21.5498 52.3105 21.6963C52.4342 21.8428 52.584 21.9583 52.7598 22.043C52.9355 22.1243 53.1357 22.165 53.3604 22.165C53.6436 22.165 53.8958 22.1081 54.1172 21.9941C54.3385 21.8802 54.5306 21.7191 54.6934 21.5107L55.3135 22.1113C55.1995 22.2773 55.0514 22.4368 54.8691 22.5898C54.6868 22.7396 54.4639 22.8617 54.2002 22.9561C53.9398 23.0505 53.637 23.0977 53.292 23.0977ZM57.5059 18.7227V23H56.3291V17.7168H57.4521L57.5059 18.7227ZM59.1221 17.6826L59.1123 18.7764C59.0407 18.7633 58.9626 18.7536 58.8779 18.7471C58.7965 18.7406 58.7152 18.7373 58.6338 18.7373C58.432 18.7373 58.2546 18.7666 58.1016 18.8252C57.9486 18.8805 57.82 18.9619 57.7158 19.0693C57.6149 19.1735 57.5368 19.3005 57.4814 19.4502C57.4261 19.5999 57.3936 19.7676 57.3838 19.9531L57.1152 19.9727C57.1152 19.6406 57.1478 19.333 57.2129 19.0498C57.278 18.7666 57.3757 18.5176 57.5059 18.3027C57.6393 18.0879 57.8053 17.9202 58.0039 17.7998C58.2057 17.6794 58.4385 17.6191 58.7021 17.6191C58.7738 17.6191 58.8503 17.6257 58.9316 17.6387C59.0163 17.6517 59.0798 17.6663 59.1221 17.6826ZM65.1572 15.8906V23H63.9414V15.8906H65.1572ZM67.3887 15.8906V16.8672H61.7295V15.8906H67.3887ZM69.3711 15.5V23H68.1992V15.5H69.3711ZM69.166 20.1631L68.7852 20.1582C68.7884 19.7936 68.8389 19.4567 68.9365 19.1475C69.0374 18.8382 69.1774 18.5697 69.3564 18.3418C69.5387 18.1107 69.7568 17.9333 70.0107 17.8096C70.2646 17.6826 70.5462 17.6191 70.8555 17.6191C71.1159 17.6191 71.3503 17.6549 71.5586 17.7266C71.7702 17.7982 71.9525 17.9137 72.1055 18.0732C72.2585 18.2295 72.374 18.4346 72.4521 18.6885C72.5335 18.9391 72.5742 19.2451 72.5742 19.6064V23H71.3926V19.5967C71.3926 19.3428 71.3551 19.141 71.2803 18.9912C71.2087 18.8415 71.1029 18.734 70.9629 18.6689C70.8229 18.6006 70.652 18.5664 70.4502 18.5664C70.2386 18.5664 70.0514 18.6087 69.8887 18.6934C69.7292 18.778 69.5957 18.8936 69.4883 19.04C69.3809 19.1865 69.2995 19.3558 69.2441 19.5479C69.1921 19.7399 69.166 19.945 69.166 20.1631ZM76.0947 23.0977C75.7041 23.0977 75.3509 23.0342 75.0352 22.9072C74.7227 22.777 74.4557 22.5964 74.2344 22.3652C74.0163 22.1341 73.8486 21.8623 73.7314 21.5498C73.6143 21.2373 73.5557 20.9004 73.5557 20.5391V20.3438C73.5557 19.9303 73.6159 19.556 73.7363 19.2207C73.8568 18.8854 74.0244 18.599 74.2393 18.3613C74.4541 18.1204 74.708 17.9365 75.001 17.8096C75.2939 17.6826 75.6113 17.6191 75.9531 17.6191C76.3307 17.6191 76.6611 17.6826 76.9443 17.8096C77.2275 17.9365 77.4619 18.1156 77.6475 18.3467C77.8363 18.5745 77.9762 18.8464 78.0674 19.1621C78.1618 19.4779 78.209 19.8262 78.209 20.207V20.71H74.127V19.8652H77.0469V19.7725C77.0404 19.5609 76.998 19.3623 76.9199 19.1768C76.8451 18.9912 76.7295 18.8415 76.5732 18.7275C76.417 18.6136 76.2087 18.5566 75.9482 18.5566C75.7529 18.5566 75.5788 18.599 75.4258 18.6836C75.276 18.765 75.1507 18.8838 75.0498 19.04C74.9489 19.1963 74.8708 19.3851 74.8154 19.6064C74.7633 19.8245 74.7373 20.0703 74.7373 20.3438V20.5391C74.7373 20.7702 74.7682 20.985 74.8301 21.1836C74.8952 21.3789 74.9896 21.5498 75.1133 21.6963C75.237 21.8428 75.3867 21.9583 75.5625 22.043C75.7383 22.1243 75.9385 22.165 76.1631 22.165C76.4463 22.165 76.6986 22.1081 76.9199 21.9941C77.1413 21.8802 77.3333 21.7191 77.4961 21.5107L78.1162 22.1113C78.0023 22.2773 77.8542 22.4368 77.6719 22.5898C77.4896 22.7396 77.2666 22.8617 77.0029 22.9561C76.7425 23.0505 76.4398 23.0977 76.0947 23.0977ZM86.9932 16.8379L84.8691 23H83.585L86.2607 15.8906H87.0811L86.9932 16.8379ZM88.7705 23L86.6416 16.8379L86.5488 15.8906H87.374L90.0596 23H88.7705ZM88.668 20.3633V21.335H84.8008V20.3633H88.668ZM91.998 15.5V23H90.8164V15.5H91.998ZM93.292 15.5H94.4688V21.8721L94.3564 23H93.292V15.5ZM97.916 20.3096V20.4121C97.916 20.8027 97.8721 21.1624 97.7842 21.4912C97.6995 21.8167 97.5693 22.0999 97.3936 22.3408C97.221 22.5817 97.0062 22.7689 96.749 22.9023C96.4951 23.0326 96.2005 23.0977 95.8652 23.0977C95.5365 23.0977 95.25 23.0358 95.0059 22.9121C94.7617 22.7884 94.5566 22.6126 94.3906 22.3848C94.2279 22.1569 94.096 21.8851 93.9951 21.5693C93.8942 21.2536 93.8226 20.9053 93.7803 20.5244V20.1973C93.8226 19.8132 93.8942 19.4648 93.9951 19.1523C94.096 18.8366 94.2279 18.5648 94.3906 18.3369C94.5566 18.1058 94.7601 17.9284 95.001 17.8047C95.2451 17.681 95.5299 17.6191 95.8555 17.6191C96.194 17.6191 96.4919 17.6842 96.749 17.8145C97.0094 17.9447 97.2259 18.1302 97.3984 18.3711C97.571 18.6087 97.6995 18.8919 97.7842 19.2207C97.8721 19.5495 97.916 19.9124 97.916 20.3096ZM96.7393 20.4121V20.3096C96.7393 20.0719 96.7197 19.849 96.6807 19.6406C96.6416 19.429 96.5765 19.2435 96.4854 19.084C96.3975 18.9245 96.277 18.7992 96.124 18.708C95.9743 18.6136 95.7871 18.5664 95.5625 18.5664C95.3542 18.5664 95.1751 18.6022 95.0254 18.6738C94.8757 18.7454 94.7503 18.8431 94.6494 18.9668C94.5485 19.0905 94.4688 19.2337 94.4102 19.3965C94.3548 19.5592 94.3174 19.735 94.2979 19.9238V20.8076C94.3271 21.0518 94.389 21.2764 94.4834 21.4814C94.5811 21.6833 94.7178 21.846 94.8936 21.9697C95.0693 22.0902 95.2956 22.1504 95.5723 22.1504C95.7904 22.1504 95.9743 22.1064 96.124 22.0186C96.2738 21.9307 96.3926 21.8086 96.4805 21.6523C96.5716 21.4928 96.6367 21.3073 96.6758 21.0957C96.7181 20.8841 96.7393 20.6562 96.7393 20.4121ZM102.091 21.7549V17.7168H103.272V23H102.159L102.091 21.7549ZM102.257 20.6562L102.652 20.6465C102.652 21.0013 102.613 21.3285 102.535 21.6279C102.457 21.9242 102.337 22.1829 102.174 22.4043C102.011 22.6224 101.803 22.7933 101.549 22.917C101.295 23.0374 100.991 23.0977 100.636 23.0977C100.379 23.0977 100.143 23.0602 99.9277 22.9854C99.7129 22.9105 99.5273 22.7949 99.3711 22.6387C99.2181 22.4824 99.0993 22.279 99.0146 22.0283C98.93 21.7777 98.8877 21.4782 98.8877 21.1299V17.7168H100.064V21.1396C100.064 21.3317 100.087 21.4928 100.133 21.623C100.178 21.75 100.24 21.8525 100.318 21.9307C100.396 22.0088 100.488 22.0641 100.592 22.0967C100.696 22.1292 100.807 22.1455 100.924 22.1455C101.259 22.1455 101.523 22.0804 101.715 21.9502C101.91 21.8167 102.049 21.6377 102.13 21.4131C102.215 21.1885 102.257 20.9362 102.257 20.6562ZM105.655 18.791V23H104.479V17.7168H105.587L105.655 18.791ZM105.465 20.1631L105.064 20.1582C105.064 19.7936 105.11 19.4567 105.201 19.1475C105.292 18.8382 105.426 18.5697 105.602 18.3418C105.777 18.1107 105.995 17.9333 106.256 17.8096C106.52 17.6826 106.824 17.6191 107.169 17.6191C107.41 17.6191 107.63 17.6549 107.828 17.7266C108.03 17.7949 108.204 17.904 108.351 18.0537C108.5 18.2035 108.614 18.3955 108.692 18.6299C108.774 18.8643 108.814 19.1475 108.814 19.4795V23H107.638V19.582C107.638 19.3249 107.599 19.123 107.521 18.9766C107.446 18.8301 107.337 18.7259 107.193 18.6641C107.053 18.599 106.886 18.5664 106.69 18.5664C106.469 18.5664 106.28 18.6087 106.124 18.6934C105.971 18.778 105.846 18.8936 105.748 19.04C105.65 19.1865 105.579 19.3558 105.533 19.5479C105.488 19.7399 105.465 19.945 105.465 20.1631ZM108.741 19.8506L108.189 19.9727C108.189 19.6536 108.233 19.3525 108.321 19.0693C108.412 18.7829 108.544 18.5322 108.717 18.3174C108.893 18.0993 109.109 17.9284 109.366 17.8047C109.623 17.681 109.918 17.6191 110.25 17.6191C110.52 17.6191 110.761 17.6566 110.973 17.7314C111.188 17.8031 111.37 17.917 111.52 18.0732C111.669 18.2295 111.783 18.4329 111.861 18.6836C111.939 18.931 111.979 19.2305 111.979 19.582V23H110.797V19.5771C110.797 19.3102 110.758 19.1035 110.68 18.957C110.605 18.8105 110.497 18.7096 110.357 18.6543C110.217 18.5957 110.05 18.5664 109.854 18.5664C109.672 18.5664 109.511 18.6006 109.371 18.6689C109.234 18.734 109.119 18.8268 109.024 18.9473C108.93 19.0645 108.858 19.1995 108.81 19.3525C108.764 19.5055 108.741 19.6715 108.741 19.8506Z" fill="#FBFBFB"/>
<path d="M27.0361 92.2773V95.8066C26.9049 95.9801 26.6997 96.1706 26.4204 96.3779C26.1453 96.5811 25.7793 96.7567 25.3223 96.9048C24.8652 97.0529 24.2961 97.127 23.6147 97.127C23.035 97.127 22.5039 97.0296 22.0215 96.835C21.5391 96.6361 21.1222 96.3462 20.771 95.9653C20.424 95.5845 20.1553 95.1211 19.9648 94.5752C19.7744 94.0251 19.6792 93.3988 19.6792 92.6963V92.0552C19.6792 91.3569 19.766 90.7349 19.9395 90.189C20.1172 89.6388 20.3711 89.1733 20.7012 88.7925C21.0312 88.4116 21.429 88.1239 21.8945 87.9292C22.3643 87.7303 22.8953 87.6309 23.4878 87.6309C24.2453 87.6309 24.8716 87.7578 25.3667 88.0117C25.866 88.2614 26.2511 88.6084 26.522 89.0527C26.7928 89.4971 26.9642 90.0049 27.0361 90.5762H25.4746C25.4238 90.2546 25.3244 89.9668 25.1763 89.7129C25.0324 89.459 24.825 89.2601 24.5542 89.1162C24.2876 88.9681 23.9406 88.894 23.5132 88.894C23.145 88.894 22.8213 88.9639 22.542 89.1035C22.2627 89.2432 22.0299 89.4484 21.8438 89.7192C21.6618 89.9901 21.5243 90.3201 21.4312 90.7095C21.3381 91.0988 21.2915 91.5431 21.2915 92.0425V92.6963C21.2915 93.2041 21.3444 93.6548 21.4502 94.0483C21.5602 94.4419 21.7168 94.7741 21.9199 95.0449C22.1273 95.3158 22.3791 95.521 22.6753 95.6606C22.9715 95.7961 23.3058 95.8638 23.6782 95.8638C24.0422 95.8638 24.3405 95.8341 24.5732 95.7749C24.806 95.7114 24.9901 95.6374 25.1255 95.5527C25.2651 95.4639 25.373 95.3792 25.4492 95.2988V93.4644H23.5259V92.2773H27.0361ZM32.7808 95.3813V90.1318H34.3169V97H32.8696L32.7808 95.3813ZM32.9966 93.9531L33.5107 93.9404C33.5107 94.4017 33.46 94.827 33.3584 95.2163C33.2568 95.6014 33.1003 95.9378 32.8887 96.2256C32.6771 96.5091 32.4062 96.7313 32.0762 96.8921C31.7461 97.0487 31.3504 97.127 30.8892 97.127C30.5549 97.127 30.248 97.0783 29.9688 96.981C29.6895 96.8836 29.4482 96.7334 29.2451 96.5303C29.0462 96.3271 28.8918 96.0627 28.7817 95.7368C28.6717 95.411 28.6167 95.0216 28.6167 94.5688V90.1318H30.1465V94.5815C30.1465 94.8312 30.1761 95.0407 30.2354 95.21C30.2946 95.375 30.375 95.5083 30.4766 95.6099C30.5781 95.7114 30.6966 95.7834 30.832 95.8257C30.9674 95.868 31.1113 95.8892 31.2637 95.8892C31.6995 95.8892 32.0423 95.8045 32.292 95.6353C32.5459 95.4618 32.7257 95.229 32.8315 94.937C32.9416 94.645 32.9966 94.3171 32.9966 93.9531ZM37.4019 91.5981V97H35.8721V90.1318H37.313L37.4019 91.5981ZM37.1289 93.312L36.6338 93.3057C36.638 92.819 36.7057 92.3726 36.8369 91.9663C36.9723 91.5601 37.1585 91.2109 37.3955 90.9189C37.6367 90.627 37.9245 90.4027 38.2588 90.2461C38.5931 90.0853 38.9655 90.0049 39.376 90.0049C39.7061 90.0049 40.0044 90.0514 40.271 90.1445C40.5418 90.2334 40.7725 90.3794 40.9629 90.5825C41.1576 90.7856 41.3057 91.0501 41.4072 91.376C41.5088 91.6976 41.5596 92.0933 41.5596 92.563V97H40.0234V92.5566C40.0234 92.2266 39.9748 91.9663 39.8774 91.7759C39.7843 91.5812 39.6468 91.4437 39.4648 91.3633C39.2871 91.2786 39.0649 91.2363 38.7983 91.2363C38.536 91.2363 38.3011 91.2913 38.0938 91.4014C37.8864 91.5114 37.7108 91.6616 37.5669 91.8521C37.4272 92.0425 37.3193 92.2625 37.2432 92.5122C37.167 92.7619 37.1289 93.0285 37.1289 93.312ZM46.9741 95.1401C46.9741 94.9878 46.936 94.8503 46.8599 94.7275C46.7837 94.6006 46.6377 94.4863 46.4219 94.3848C46.2103 94.2832 45.8971 94.1901 45.4824 94.1055C45.1185 94.0251 44.7842 93.9299 44.4795 93.8198C44.179 93.7056 43.9209 93.568 43.7051 93.4072C43.4893 93.2464 43.3221 93.056 43.2036 92.8359C43.0851 92.6159 43.0259 92.362 43.0259 92.0742C43.0259 91.7949 43.0872 91.5304 43.21 91.2808C43.3327 91.0311 43.5083 90.811 43.7368 90.6206C43.9653 90.4302 44.2425 90.2799 44.5684 90.1699C44.8984 90.0599 45.2666 90.0049 45.6729 90.0049C46.2484 90.0049 46.7414 90.1022 47.1519 90.2969C47.5666 90.4873 47.884 90.7476 48.104 91.0776C48.3241 91.4035 48.4341 91.7716 48.4341 92.1821H46.9043C46.9043 92.0002 46.8577 91.8309 46.7646 91.6743C46.6758 91.5135 46.5404 91.3844 46.3584 91.2871C46.1764 91.1855 45.9479 91.1348 45.6729 91.1348C45.4105 91.1348 45.1925 91.1771 45.019 91.2617C44.8498 91.3421 44.7228 91.4479 44.6382 91.5791C44.5578 91.7103 44.5176 91.8542 44.5176 92.0107C44.5176 92.125 44.5387 92.2287 44.5811 92.3218C44.6276 92.4106 44.7038 92.4932 44.8096 92.5693C44.9154 92.6413 45.0592 92.709 45.2412 92.7725C45.4274 92.8359 45.6602 92.8973 45.9395 92.9565C46.4642 93.0666 46.9149 93.2083 47.2915 93.3818C47.6724 93.5511 47.9644 93.7712 48.1675 94.042C48.3706 94.3086 48.4722 94.6471 48.4722 95.0576C48.4722 95.3623 48.4066 95.6416 48.2754 95.8955C48.1484 96.1452 47.9622 96.3631 47.7168 96.5493C47.4714 96.7313 47.1772 96.873 46.8345 96.9746C46.4959 97.0762 46.1151 97.127 45.6919 97.127C45.0698 97.127 44.543 97.0169 44.1113 96.7969C43.6797 96.5726 43.3517 96.2869 43.1274 95.9399C42.9074 95.5887 42.7974 95.2248 42.7974 94.8481H44.2764C44.2933 95.1317 44.3716 95.3581 44.5112 95.5273C44.6551 95.6924 44.8328 95.813 45.0444 95.8892C45.2603 95.9611 45.4824 95.9971 45.7109 95.9971C45.986 95.9971 46.2166 95.9611 46.4028 95.8892C46.589 95.813 46.7308 95.7114 46.8281 95.5845C46.9255 95.4533 46.9741 95.3052 46.9741 95.1401ZM60.5327 87.7578V97H58.9395L54.7944 90.3794V97H53.2012V87.7578H54.7944L58.9521 94.3911V87.7578H60.5327ZM63.7319 87.25V88.145C63.7319 88.4116 63.6833 88.6888 63.5859 88.9766C63.4928 89.2601 63.3617 89.533 63.1924 89.7954C63.0231 90.0535 62.8285 90.2778 62.6084 90.4683L61.8403 89.9858C62.0138 89.7235 62.1535 89.4463 62.2593 89.1543C62.3693 88.8581 62.4243 88.5259 62.4243 88.1577V87.25H63.7319ZM68.4736 87.7578H71.7427C72.4451 87.7578 73.0439 87.8636 73.5391 88.0752C74.0342 88.2868 74.4129 88.5999 74.6753 89.0146C74.9419 89.4251 75.0752 89.9329 75.0752 90.5381C75.0752 90.9993 74.9906 91.4056 74.8213 91.7568C74.652 92.1081 74.4129 92.4043 74.104 92.6455C73.7951 92.8825 73.4269 93.0666 72.9995 93.1978L72.5171 93.4326H69.5781L69.5654 92.1694H71.7681C72.1489 92.1694 72.4663 92.1017 72.7202 91.9663C72.9741 91.8309 73.1646 91.6468 73.2915 91.4141C73.4227 91.1771 73.4883 90.9105 73.4883 90.6143C73.4883 90.2926 73.4248 90.0133 73.2979 89.7764C73.1751 89.5352 72.9847 89.3511 72.7266 89.2241C72.4684 89.0929 72.1405 89.0273 71.7427 89.0273H70.0669V97H68.4736V87.7578ZM73.7485 97L71.5776 92.8486L73.2471 92.8423L75.4497 96.9175V97H73.7485ZM76.2178 93.6421V93.4961C76.2178 93.001 76.2897 92.5418 76.4336 92.1187C76.5775 91.6912 76.7848 91.321 77.0557 91.0078C77.3307 90.6904 77.665 90.445 78.0586 90.2715C78.4564 90.0938 78.9049 90.0049 79.4043 90.0049C79.9079 90.0049 80.3564 90.0938 80.75 90.2715C81.1478 90.445 81.4842 90.6904 81.7593 91.0078C82.0343 91.321 82.2438 91.6912 82.3877 92.1187C82.5316 92.5418 82.6035 93.001 82.6035 93.4961V93.6421C82.6035 94.1372 82.5316 94.5964 82.3877 95.0195C82.2438 95.4427 82.0343 95.813 81.7593 96.1304C81.4842 96.4435 81.1499 96.689 80.7563 96.8667C80.3628 97.0402 79.9163 97.127 79.417 97.127C78.9134 97.127 78.4627 97.0402 78.0649 96.8667C77.6714 96.689 77.3371 96.4435 77.062 96.1304C76.7869 95.813 76.5775 95.4427 76.4336 95.0195C76.2897 94.5964 76.2178 94.1372 76.2178 93.6421ZM77.7476 93.4961V93.6421C77.7476 93.951 77.7793 94.243 77.8428 94.5181C77.9062 94.7931 78.0057 95.0343 78.1411 95.2417C78.2765 95.4491 78.45 95.612 78.6616 95.7305C78.8732 95.849 79.125 95.9082 79.417 95.9082C79.7005 95.9082 79.946 95.849 80.1533 95.7305C80.3649 95.612 80.5384 95.4491 80.6738 95.2417C80.8092 95.0343 80.9087 94.7931 80.9722 94.5181C81.0399 94.243 81.0737 93.951 81.0737 93.6421V93.4961C81.0737 93.1914 81.0399 92.9036 80.9722 92.6328C80.9087 92.3577 80.8071 92.1144 80.6675 91.9028C80.5321 91.6912 80.3586 91.5262 80.147 91.4077C79.9396 91.285 79.6921 91.2236 79.4043 91.2236C79.1165 91.2236 78.8669 91.285 78.6553 91.4077C78.4479 91.5262 78.2765 91.6912 78.1411 91.9028C78.0057 92.1144 77.9062 92.3577 77.8428 92.6328C77.7793 92.9036 77.7476 93.1914 77.7476 93.4961ZM87.7388 95.1401C87.7388 94.9878 87.7007 94.8503 87.6245 94.7275C87.5483 94.6006 87.4023 94.4863 87.1865 94.3848C86.9749 94.2832 86.6618 94.1901 86.2471 94.1055C85.8831 94.0251 85.5488 93.9299 85.2441 93.8198C84.9437 93.7056 84.6855 93.568 84.4697 93.4072C84.2539 93.2464 84.0868 93.056 83.9683 92.8359C83.8498 92.6159 83.7905 92.362 83.7905 92.0742C83.7905 91.7949 83.8519 91.5304 83.9746 91.2808C84.0973 91.0311 84.2729 90.811 84.5015 90.6206C84.73 90.4302 85.0072 90.2799 85.333 90.1699C85.6631 90.0599 86.0312 90.0049 86.4375 90.0049C87.013 90.0049 87.506 90.1022 87.9165 90.2969C88.3312 90.4873 88.6486 90.7476 88.8687 91.0776C89.0887 91.4035 89.1987 91.7716 89.1987 92.1821H87.6689C87.6689 92.0002 87.6224 91.8309 87.5293 91.6743C87.4404 91.5135 87.305 91.3844 87.123 91.2871C86.9411 91.1855 86.7126 91.1348 86.4375 91.1348C86.1751 91.1348 85.9572 91.1771 85.7837 91.2617C85.6144 91.3421 85.4875 91.4479 85.4028 91.5791C85.3224 91.7103 85.2822 91.8542 85.2822 92.0107C85.2822 92.125 85.3034 92.2287 85.3457 92.3218C85.3923 92.4106 85.4684 92.4932 85.5742 92.5693C85.68 92.6413 85.8239 92.709 86.0059 92.7725C86.1921 92.8359 86.4248 92.8973 86.7041 92.9565C87.2288 93.0666 87.6795 93.2083 88.0562 93.3818C88.437 93.5511 88.729 93.7712 88.9321 94.042C89.1353 94.3086 89.2368 94.6471 89.2368 95.0576C89.2368 95.3623 89.1712 95.6416 89.04 95.8955C88.9131 96.1452 88.7269 96.3631 88.4814 96.5493C88.236 96.7313 87.9419 96.873 87.5991 96.9746C87.2606 97.0762 86.8797 97.127 86.4565 97.127C85.8345 97.127 85.3076 97.0169 84.876 96.7969C84.4443 96.5726 84.1164 96.2869 83.8921 95.9399C83.672 95.5887 83.562 95.2248 83.562 94.8481H85.041C85.0579 95.1317 85.1362 95.3581 85.2759 95.5273C85.4198 95.6924 85.5975 95.813 85.8091 95.8892C86.0249 95.9611 86.2471 95.9971 86.4756 95.9971C86.7507 95.9971 86.9813 95.9611 87.1675 95.8892C87.3537 95.813 87.4954 95.7114 87.5928 95.5845C87.6901 95.4533 87.7388 95.3052 87.7388 95.1401ZM93.604 97.127C93.0962 97.127 92.637 97.0444 92.2266 96.8794C91.8203 96.7101 91.4733 96.4753 91.1855 96.1748C90.902 95.8743 90.6841 95.521 90.5317 95.1147C90.3794 94.7085 90.3032 94.2705 90.3032 93.8008V93.5469C90.3032 93.0094 90.3815 92.5228 90.5381 92.0869C90.6947 91.651 90.9126 91.2786 91.1919 90.9697C91.4712 90.6566 91.8013 90.4175 92.1821 90.2524C92.563 90.0874 92.9756 90.0049 93.4199 90.0049C93.9108 90.0049 94.3403 90.0874 94.7085 90.2524C95.0767 90.4175 95.3813 90.6502 95.6226 90.9507C95.868 91.2469 96.05 91.6003 96.1685 92.0107C96.2912 92.4212 96.3525 92.874 96.3525 93.3691V94.0229H91.0459V92.9248H94.8418V92.8042C94.8333 92.5291 94.7783 92.271 94.6768 92.0298C94.5794 91.7886 94.4292 91.5939 94.2261 91.4458C94.0229 91.2977 93.7521 91.2236 93.4136 91.2236C93.1597 91.2236 92.9333 91.2786 92.7344 91.3887C92.5397 91.4945 92.3768 91.6489 92.2456 91.8521C92.1144 92.0552 92.0129 92.3006 91.9409 92.5884C91.8732 92.8719 91.8394 93.1914 91.8394 93.5469V93.8008C91.8394 94.1012 91.8796 94.3805 91.96 94.6387C92.0446 94.8926 92.1673 95.1147 92.3281 95.3052C92.4889 95.4956 92.6836 95.6458 92.9121 95.7559C93.1406 95.8617 93.4009 95.9146 93.6929 95.9146C94.061 95.9146 94.389 95.8405 94.6768 95.6924C94.9645 95.5443 95.2142 95.3348 95.4258 95.064L96.2319 95.8447C96.0838 96.0605 95.8913 96.2679 95.6543 96.4668C95.4173 96.6615 95.1274 96.8201 94.7847 96.9429C94.4461 97.0656 94.0526 97.127 93.604 97.127ZM101.399 95.1401C101.399 94.9878 101.361 94.8503 101.285 94.7275C101.208 94.6006 101.062 94.4863 100.847 94.3848C100.635 94.2832 100.322 94.1901 99.9072 94.1055C99.5433 94.0251 99.209 93.9299 98.9043 93.8198C98.6038 93.7056 98.3457 93.568 98.1299 93.4072C97.9141 93.2464 97.7469 93.056 97.6284 92.8359C97.5099 92.6159 97.4507 92.362 97.4507 92.0742C97.4507 91.7949 97.512 91.5304 97.6348 91.2808C97.7575 91.0311 97.9331 90.811 98.1616 90.6206C98.3901 90.4302 98.6673 90.2799 98.9932 90.1699C99.3232 90.0599 99.6914 90.0049 100.098 90.0049C100.673 90.0049 101.166 90.1022 101.577 90.2969C101.991 90.4873 102.309 90.7476 102.529 91.0776C102.749 91.4035 102.859 91.7716 102.859 92.1821H101.329C101.329 92.0002 101.283 91.8309 101.189 91.6743C101.101 91.5135 100.965 91.3844 100.783 91.2871C100.601 91.1855 100.373 91.1348 100.098 91.1348C99.8353 91.1348 99.6174 91.1771 99.4438 91.2617C99.2746 91.3421 99.1476 91.4479 99.063 91.5791C98.9826 91.7103 98.9424 91.8542 98.9424 92.0107C98.9424 92.125 98.9635 92.2287 99.0059 92.3218C99.0524 92.4106 99.1286 92.4932 99.2344 92.5693C99.3402 92.6413 99.484 92.709 99.666 92.7725C99.8522 92.8359 100.085 92.8973 100.364 92.9565C100.889 93.0666 101.34 93.2083 101.716 93.3818C102.097 93.5511 102.389 93.7712 102.592 94.042C102.795 94.3086 102.897 94.6471 102.897 95.0576C102.897 95.3623 102.831 95.6416 102.7 95.8955C102.573 96.1452 102.387 96.3631 102.142 96.5493C101.896 96.7313 101.602 96.873 101.259 96.9746C100.921 97.0762 100.54 97.127 100.117 97.127C99.4946 97.127 98.9678 97.0169 98.5361 96.7969C98.1045 96.5726 97.7765 96.2869 97.5522 95.9399C97.3322 95.5887 97.2222 95.2248 97.2222 94.8481H98.7012C98.7181 95.1317 98.7964 95.3581 98.936 95.5273C99.0799 95.6924 99.2576 95.813 99.4692 95.8892C99.6851 95.9611 99.9072 95.9971 100.136 95.9971C100.411 95.9971 100.641 95.9611 100.828 95.8892C101.014 95.813 101.156 95.7114 101.253 95.5845C101.35 95.4533 101.399 95.3052 101.399 95.1401Z" fill="#FBFBFB"/>
<path d="M27.665 33.4922H30.439V42.417C30.439 43.4561 30.2163 44.3312 29.771 45.0425C29.3319 45.7537 28.7227 46.2887 27.9434 46.6475C27.1702 47.0062 26.2796 47.1855 25.2715 47.1855C24.2633 47.1855 23.3665 47.0062 22.5811 46.6475C21.8018 46.2887 21.1895 45.7537 20.7441 45.0425C20.305 44.3312 20.0854 43.4561 20.0854 42.417V33.4922H22.8687V42.417C22.8687 43.0231 22.9645 43.5179 23.1562 43.9014C23.348 44.2848 23.6232 44.5662 23.9819 44.7456C24.3468 44.925 24.7767 45.0146 25.2715 45.0146C25.7786 45.0146 26.2085 44.925 26.561 44.7456C26.9198 44.5662 27.1919 44.2848 27.3774 43.9014C27.5692 43.5179 27.665 43.0231 27.665 42.417V33.4922ZM37.9907 44.2261C37.9907 44.0343 37.9351 43.8612 37.8237 43.7065C37.7124 43.5519 37.5052 43.4097 37.2021 43.2798C36.9053 43.1437 36.4754 43.02 35.9126 42.9087C35.4054 42.7974 34.9323 42.6582 34.4932 42.4912C34.0602 42.318 33.6829 42.1108 33.3613 41.8696C33.0459 41.6284 32.7985 41.3439 32.6191 41.0161C32.4398 40.6821 32.3501 40.3018 32.3501 39.875C32.3501 39.4544 32.4398 39.0586 32.6191 38.6875C32.8047 38.3164 33.0675 37.9886 33.4077 37.7041C33.7541 37.4134 34.1746 37.1877 34.6694 37.0269C35.1704 36.8599 35.7332 36.7764 36.3579 36.7764C37.23 36.7764 37.9784 36.9155 38.603 37.1938C39.2339 37.4722 39.7163 37.8556 40.0503 38.3442C40.3905 38.8267 40.5605 39.3771 40.5605 39.9956H37.8887C37.8887 39.7358 37.833 39.5039 37.7217 39.2998C37.6165 39.0895 37.4495 38.9256 37.2207 38.8081C36.998 38.6844 36.7074 38.6226 36.3486 38.6226C36.0518 38.6226 35.7951 38.6751 35.5786 38.7803C35.3621 38.8792 35.1951 39.0153 35.0776 39.1885C34.9663 39.3555 34.9106 39.541 34.9106 39.7451C34.9106 39.8997 34.9416 40.0389 35.0034 40.1626C35.0715 40.2801 35.1797 40.3883 35.3281 40.4873C35.4766 40.5863 35.6683 40.679 35.9033 40.7656C36.1445 40.846 36.4414 40.9202 36.7939 40.9883C37.5176 41.1367 38.1639 41.3315 38.7329 41.5728C39.3019 41.8078 39.7534 42.1294 40.0874 42.5376C40.4214 42.9396 40.5884 43.4684 40.5884 44.124C40.5884 44.5693 40.4894 44.9775 40.2915 45.3486C40.0936 45.7197 39.8091 46.0444 39.438 46.3228C39.0669 46.5949 38.6216 46.8083 38.1021 46.9629C37.5887 47.1113 37.0104 47.1855 36.3672 47.1855C35.4333 47.1855 34.6416 47.0186 33.9922 46.6846C33.349 46.3506 32.8604 45.9269 32.5264 45.4136C32.1986 44.894 32.0347 44.3621 32.0347 43.8179H34.5674C34.5798 44.1828 34.6725 44.4766 34.8457 44.6992C35.0251 44.9219 35.2508 45.0827 35.5229 45.1816C35.8013 45.2806 36.1012 45.3301 36.4229 45.3301C36.7692 45.3301 37.0568 45.2837 37.2856 45.1909C37.5145 45.092 37.6877 44.9621 37.8052 44.8013C37.9289 44.6343 37.9907 44.4425 37.9907 44.2261ZM46.9434 47.1855C46.1641 47.1855 45.4652 47.0618 44.8467 46.8145C44.2282 46.5609 43.7025 46.2114 43.2695 45.7661C42.8428 45.3208 42.515 44.8044 42.2861 44.2168C42.0573 43.623 41.9429 42.9922 41.9429 42.3242V41.9531C41.9429 41.1924 42.0511 40.4966 42.2676 39.8657C42.484 39.2349 42.7933 38.6875 43.1953 38.2236C43.6035 37.7598 44.0983 37.4041 44.6797 37.1567C45.2611 36.9032 45.9167 36.7764 46.6465 36.7764C47.3577 36.7764 47.9886 36.8939 48.5391 37.1289C49.0895 37.3639 49.5503 37.6979 49.9214 38.1309C50.2987 38.5638 50.5832 39.0833 50.7749 39.6895C50.9666 40.2894 51.0625 40.9574 51.0625 41.6934V42.8066H43.084V41.0254H48.437V40.8213C48.437 40.4502 48.369 40.1193 48.2329 39.8286C48.103 39.5317 47.9051 39.2967 47.6392 39.1235C47.3732 38.9504 47.033 38.8638 46.6187 38.8638C46.2661 38.8638 45.9631 38.9411 45.7095 39.0957C45.4559 39.2503 45.2487 39.4668 45.0879 39.7451C44.9333 40.0234 44.8158 40.3512 44.7354 40.7285C44.6611 41.0996 44.624 41.5078 44.624 41.9531V42.3242C44.624 42.7262 44.6797 43.0973 44.791 43.4375C44.9085 43.7777 45.0724 44.0715 45.2827 44.3188C45.4992 44.5662 45.759 44.758 46.062 44.894C46.3713 45.0301 46.7207 45.0981 47.1104 45.0981C47.5928 45.0981 48.0412 45.0054 48.4556 44.8198C48.8761 44.6281 49.238 44.3405 49.541 43.957L50.8398 45.3672C50.6296 45.6702 50.342 45.9609 49.9771 46.2393C49.6183 46.5176 49.1854 46.7464 48.6782 46.9258C48.1711 47.099 47.5928 47.1855 46.9434 47.1855ZM59.3379 33.4922L62.1582 39.6523L64.9785 33.4922H68.0122L63.5684 42.083V47H60.748V42.083L56.2949 33.4922H59.3379ZM68.04 42.083V41.8882C68.04 41.1522 68.1452 40.4749 68.3555 39.8564C68.5658 39.2318 68.8719 38.6906 69.2739 38.2329C69.6759 37.7752 70.1707 37.4196 70.7583 37.166C71.3459 36.9062 72.02 36.7764 72.7808 36.7764C73.5415 36.7764 74.2188 36.9062 74.8125 37.166C75.4062 37.4196 75.9041 37.7752 76.3062 38.2329C76.7144 38.6906 77.0236 39.2318 77.2339 39.8564C77.4442 40.4749 77.5493 41.1522 77.5493 41.8882V42.083C77.5493 42.8128 77.4442 43.4901 77.2339 44.1147C77.0236 44.7332 76.7144 45.2744 76.3062 45.7383C75.9041 46.196 75.4093 46.5516 74.8218 46.8052C74.2342 47.0588 73.5601 47.1855 72.7993 47.1855C72.0386 47.1855 71.3613 47.0588 70.7676 46.8052C70.18 46.5516 69.6821 46.196 69.2739 45.7383C68.8719 45.2744 68.5658 44.7332 68.3555 44.1147C68.1452 43.4901 68.04 42.8128 68.04 42.083ZM70.7119 41.8882V42.083C70.7119 42.5036 70.749 42.8963 70.8232 43.2612C70.8975 43.6261 71.015 43.9478 71.1758 44.2261C71.3428 44.4982 71.5592 44.7116 71.8252 44.8662C72.0911 45.0208 72.4159 45.0981 72.7993 45.0981C73.1704 45.0981 73.4889 45.0208 73.7549 44.8662C74.0208 44.7116 74.2342 44.4982 74.395 44.2261C74.5558 43.9478 74.6733 43.6261 74.7476 43.2612C74.828 42.8963 74.8682 42.5036 74.8682 42.083V41.8882C74.8682 41.48 74.828 41.0965 74.7476 40.7378C74.6733 40.3729 74.5527 40.0513 74.3857 39.7729C74.2249 39.4884 74.0116 39.2658 73.7456 39.105C73.4797 38.9442 73.158 38.8638 72.7808 38.8638C72.4035 38.8638 72.0819 38.9442 71.8159 39.105C71.5562 39.2658 71.3428 39.4884 71.1758 39.7729C71.015 40.0513 70.8975 40.3729 70.8232 40.7378C70.749 41.0965 70.7119 41.48 70.7119 41.8882ZM85.1289 44.5972V36.9619H87.8008V47H85.2866L85.1289 44.5972ZM85.4258 42.5376L86.2144 42.519C86.2144 43.187 86.137 43.8086 85.9824 44.3838C85.8278 44.9528 85.5959 45.4476 85.2866 45.8682C84.9774 46.2826 84.5877 46.6073 84.1177 46.8423C83.6476 47.0711 83.0941 47.1855 82.457 47.1855C81.9684 47.1855 81.5169 47.1175 81.1025 46.9814C80.6943 46.8392 80.3418 46.6196 80.0449 46.3228C79.7542 46.0197 79.5254 45.6331 79.3584 45.1631C79.1976 44.6868 79.1172 44.1147 79.1172 43.4468V36.9619H81.7891V43.4653C81.7891 43.7622 81.8231 44.0127 81.8911 44.2168C81.9653 44.4209 82.0674 44.5879 82.1973 44.7178C82.3271 44.8477 82.4787 44.9404 82.6519 44.9961C82.8312 45.0518 83.0291 45.0796 83.2456 45.0796C83.7961 45.0796 84.229 44.9683 84.5444 44.7456C84.866 44.5229 85.0918 44.2199 85.2217 43.8364C85.3577 43.4468 85.4258 43.0138 85.4258 42.5376ZM92.5137 39.1514V47H89.8418V36.9619H92.356L92.5137 39.1514ZM95.5381 36.897L95.4917 39.374C95.3618 39.3555 95.2041 39.34 95.0186 39.3276C94.8392 39.3091 94.6753 39.2998 94.5269 39.2998C94.1496 39.2998 93.8218 39.3493 93.5435 39.4482C93.2713 39.541 93.0425 39.6802 92.8569 39.8657C92.6776 40.0513 92.5415 40.277 92.4487 40.543C92.3621 40.8089 92.3127 41.112 92.3003 41.4521L91.7622 41.2852C91.7622 40.6357 91.8271 40.0389 91.957 39.4946C92.0869 38.9442 92.2756 38.4648 92.5229 38.0566C92.7765 37.6484 93.0858 37.333 93.4507 37.1104C93.8156 36.8877 94.2331 36.7764 94.7031 36.7764C94.8516 36.7764 95.0031 36.7887 95.1577 36.8135C95.3123 36.832 95.4391 36.8599 95.5381 36.897ZM23.1655 55.4922V69H20.3916V55.4922H23.1655ZM28.4258 54.75V69H25.7446V54.75H28.4258ZM33.4541 54.75V69H30.7729V54.75H33.4541ZM41.5996 66.5972V58.9619H44.2715V69H41.7573L41.5996 66.5972ZM41.8965 64.5376L42.6851 64.519C42.6851 65.187 42.6077 65.8086 42.4531 66.3838C42.2985 66.9528 42.0666 67.4476 41.7573 67.8682C41.4481 68.2826 41.0584 68.6073 40.5884 68.8423C40.1183 69.0711 39.5648 69.1855 38.9277 69.1855C38.4391 69.1855 37.9876 69.1175 37.5732 68.9814C37.165 68.8392 36.8125 68.6196 36.5156 68.3228C36.2249 68.0197 35.9961 67.6331 35.8291 67.1631C35.6683 66.6868 35.5879 66.1147 35.5879 65.4468V58.9619H38.2598V65.4653C38.2598 65.7622 38.2938 66.0127 38.3618 66.2168C38.436 66.4209 38.5381 66.5879 38.668 66.7178C38.7979 66.8477 38.9494 66.9404 39.1226 66.9961C39.3019 67.0518 39.4998 67.0796 39.7163 67.0796C40.2668 67.0796 40.6997 66.9683 41.0151 66.7456C41.3368 66.5229 41.5625 66.2199 41.6924 65.8364C41.8285 65.4468 41.8965 65.0138 41.8965 64.5376ZM51.7397 66.2261C51.7397 66.0343 51.6841 65.8612 51.5728 65.7065C51.4614 65.5519 51.2542 65.4097 50.9512 65.2798C50.6543 65.1437 50.2244 65.02 49.6616 64.9087C49.1545 64.7974 48.6813 64.6582 48.2422 64.4912C47.8092 64.318 47.432 64.1108 47.1104 63.8696C46.7949 63.6284 46.5475 63.3439 46.3682 63.0161C46.1888 62.6821 46.0991 62.3018 46.0991 61.875C46.0991 61.4544 46.1888 61.0586 46.3682 60.6875C46.5537 60.3164 46.8166 59.9886 47.1567 59.7041C47.5031 59.4134 47.9237 59.1877 48.4185 59.0269C48.9194 58.8599 49.4823 58.7764 50.1069 58.7764C50.979 58.7764 51.7274 58.9155 52.3521 59.1938C52.9829 59.4722 53.4653 59.8556 53.7993 60.3442C54.1395 60.8267 54.3096 61.3771 54.3096 61.9956H51.6377C51.6377 61.7358 51.582 61.5039 51.4707 61.2998C51.3656 61.0895 51.1986 60.9256 50.9697 60.8081C50.7471 60.6844 50.4564 60.6226 50.0977 60.6226C49.8008 60.6226 49.5441 60.6751 49.3276 60.7803C49.1112 60.8792 48.9442 61.0153 48.8267 61.1885C48.7153 61.3555 48.6597 61.541 48.6597 61.7451C48.6597 61.8997 48.6906 62.0389 48.7524 62.1626C48.8205 62.2801 48.9287 62.3883 49.0771 62.4873C49.2256 62.5863 49.4173 62.679 49.6523 62.7656C49.8936 62.846 50.1904 62.9202 50.543 62.9883C51.2666 63.1367 51.9129 63.3315 52.4819 63.5728C53.0509 63.8078 53.5024 64.1294 53.8364 64.5376C54.1704 64.9396 54.3374 65.4684 54.3374 66.124C54.3374 66.5693 54.2384 66.9775 54.0405 67.3486C53.8426 67.7197 53.5581 68.0444 53.187 68.3228C52.8159 68.5949 52.3706 68.8083 51.8511 68.9629C51.3377 69.1113 50.7594 69.1855 50.1162 69.1855C49.1823 69.1855 48.3906 69.0186 47.7412 68.6846C47.098 68.3506 46.6094 67.9269 46.2754 67.4136C45.9476 66.894 45.7837 66.3621 45.7837 65.8179H48.3164C48.3288 66.1828 48.4215 66.4766 48.5947 66.6992C48.7741 66.9219 48.9998 67.0827 49.272 67.1816C49.5503 67.2806 49.8503 67.3301 50.1719 67.3301C50.5182 67.3301 50.8058 67.2837 51.0347 67.1909C51.2635 67.092 51.4367 66.9621 51.5542 66.8013C51.6779 66.6343 51.7397 66.4425 51.7397 66.2261ZM58.8926 58.9619V69H56.2114V58.9619H58.8926ZM56.0444 56.3457C56.0444 55.9561 56.1805 55.6344 56.4526 55.3809C56.7248 55.1273 57.0897 55.0005 57.5474 55.0005C57.9989 55.0005 58.3607 55.1273 58.6328 55.3809C58.9111 55.6344 59.0503 55.9561 59.0503 56.3457C59.0503 56.7354 58.9111 57.057 58.6328 57.3105C58.3607 57.5641 57.9989 57.6909 57.5474 57.6909C57.0897 57.6909 56.7248 57.5641 56.4526 57.3105C56.1805 57.057 56.0444 56.7354 56.0444 56.3457ZM60.6738 64.083V63.8882C60.6738 63.1522 60.779 62.4749 60.9893 61.8564C61.1995 61.2318 61.5057 60.6906 61.9077 60.2329C62.3097 59.7752 62.8045 59.4196 63.3921 59.166C63.9797 58.9062 64.6538 58.7764 65.4146 58.7764C66.1753 58.7764 66.8525 58.9062 67.4463 59.166C68.04 59.4196 68.5379 59.7752 68.9399 60.2329C69.3481 60.6906 69.6574 61.2318 69.8677 61.8564C70.078 62.4749 70.1831 63.1522 70.1831 63.8882V64.083C70.1831 64.8128 70.078 65.4901 69.8677 66.1147C69.6574 66.7332 69.3481 67.2744 68.9399 67.7383C68.5379 68.196 68.0431 68.5516 67.4556 68.8052C66.868 69.0588 66.1938 69.1855 65.4331 69.1855C64.6724 69.1855 63.9951 69.0588 63.4014 68.8052C62.8138 68.5516 62.3159 68.196 61.9077 67.7383C61.5057 67.2744 61.1995 66.7332 60.9893 66.1147C60.779 65.4901 60.6738 64.8128 60.6738 64.083ZM63.3457 63.8882V64.083C63.3457 64.5036 63.3828 64.8963 63.457 65.2612C63.5312 65.6261 63.6488 65.9478 63.8096 66.2261C63.9766 66.4982 64.193 66.7116 64.459 66.8662C64.7249 67.0208 65.0496 67.0981 65.4331 67.0981C65.8042 67.0981 66.1227 67.0208 66.3887 66.8662C66.6546 66.7116 66.868 66.4982 67.0288 66.2261C67.1896 65.9478 67.3071 65.6261 67.3813 65.2612C67.4618 64.8963 67.502 64.5036 67.502 64.083V63.8882C67.502 63.48 67.4618 63.0965 67.3813 62.7378C67.3071 62.3729 67.1865 62.0513 67.0195 61.7729C66.8587 61.4884 66.6453 61.2658 66.3794 61.105C66.1134 60.9442 65.7918 60.8638 65.4146 60.8638C65.0373 60.8638 64.7157 60.9442 64.4497 61.105C64.1899 61.2658 63.9766 61.4884 63.8096 61.7729C63.6488 62.0513 63.5312 62.3729 63.457 62.7378C63.3828 63.0965 63.3457 63.48 63.3457 63.8882ZM74.4414 61.105V69H71.7695V58.9619H74.2744L74.4414 61.105ZM74.0518 63.6284H73.3281C73.3281 62.8862 73.424 62.2183 73.6157 61.6245C73.8075 61.0246 74.0765 60.5143 74.4229 60.0938C74.7692 59.667 75.1805 59.3423 75.6567 59.1196C76.1392 58.8908 76.6772 58.7764 77.271 58.7764C77.741 58.7764 78.1709 58.8444 78.5605 58.9805C78.9502 59.1165 79.2842 59.333 79.5625 59.6299C79.847 59.9268 80.0635 60.3195 80.2119 60.8081C80.3665 61.2967 80.4438 61.8936 80.4438 62.5986V69H77.7534V62.5894C77.7534 62.144 77.6916 61.7977 77.5679 61.5503C77.4442 61.3029 77.2617 61.1297 77.0205 61.0308C76.7855 60.9256 76.4948 60.873 76.1484 60.873C75.7897 60.873 75.4774 60.9442 75.2114 61.0864C74.9517 61.2287 74.7352 61.4266 74.562 61.6802C74.395 61.9276 74.2682 62.2183 74.1816 62.5522C74.0951 62.8862 74.0518 63.245 74.0518 63.6284ZM90.3335 55.4922V69H87.5596V55.4922H90.3335Z" fill="#FBFBFB"/>
</g>
<defs>
<linearGradient id="paint0_linear_30_175" x1="334" y1="118" x2="76.5538" y2="-93.2809" gradientUnits="userSpaceOnUse">
<stop stop-color="#FF8216"/>
<stop offset="1" stop-color="#FF9D48"/>
</linearGradient>
<radialGradient id="paint1_radial_30_175" cx="0" cy="0" r="1" gradientUnits="userSpaceOnUse" gradientTransform="translate(307.981 40.641) rotate(44.6554) scale(82.2368 83.1472)">
<stop stop-color="white"/>
<stop offset="1" stop-color="#1E1E1E" stop-opacity="0"/>
<stop offset="1" stop-color="#0E0E35" stop-opacity="0"/>
<stop offset="1" stop-color="white" stop-opacity="0"/>
</radialGradient>
<clipPath id="clip0_30_175">
<rect width="334" height="118" rx="30" fill="white"/>
</clipPath>
</defs>
</svg>
