<svg width="438" height="104" viewBox="0 0 438 104" fill="none" xmlns="http://www.w3.org/2000/svg">
<circle cx="50" cy="52" r="50" fill="url(#paint0_linear_207_708)"/>
<g clip-path="url(#clip0_207_708)">
<path d="M71.3335 25.3334H39.3335C36.4002 25.3334 34.0002 27.7334 34.0002 30.6667V62.6667C34.0002 65.6 36.4002 68 39.3335 68H71.3335C74.2668 68 76.6668 65.6 76.6668 62.6667V30.6667C76.6668 27.7334 74.2668 25.3334 71.3335 25.3334ZM66.0002 38.6667H58.0002V53.3334C58.0002 57.0134 55.0135 60 51.3335 60C47.6535 60 44.6668 57.0134 44.6668 53.3334C44.6668 49.6534 47.6535 46.6667 51.3335 46.6667C52.8535 46.6667 54.2135 47.1734 55.3335 48.0267V33.3334H66.0002V38.6667ZM28.6668 36H23.3335V73.3334C23.3335 76.2667 25.7335 78.6667 28.6668 78.6667H66.0002V73.3334H28.6668V36Z" fill="white"/>
</g>
<path d="M150.565 76.897C147.299 76.897 144.229 76.253 141.354 74.965C138.479 73.654 135.949 71.8485 133.764 69.5485C131.579 67.2485 129.865 64.592 128.623 61.579C127.381 58.543 126.76 55.3 126.76 51.85C126.76 48.4 127.381 45.1685 128.623 42.1555C129.865 39.1195 131.579 36.4515 133.764 34.1515C135.949 31.8515 138.479 30.0575 141.354 28.7695C144.229 27.4585 147.299 26.803 150.565 26.803C153.854 26.803 156.936 27.4585 159.811 28.7695C162.686 30.0575 165.216 31.8515 167.401 34.1515C169.586 36.4515 171.288 39.1195 172.507 42.1555C173.749 45.1685 174.37 48.4 174.37 51.85C174.37 55.3 173.749 58.543 172.507 61.579C171.288 64.592 169.586 67.2485 167.401 69.5485C165.216 71.8485 162.686 73.654 159.811 74.965C156.936 76.253 153.854 76.897 150.565 76.897ZM150.565 68.479C152.681 68.479 154.671 68.042 156.534 67.168C158.397 66.294 160.03 65.098 161.433 63.58C162.859 62.039 163.963 60.268 164.745 58.267C165.55 56.266 165.952 54.127 165.952 51.85C165.952 49.573 165.55 47.434 164.745 45.433C163.94 43.409 162.824 41.638 161.398 40.12C159.995 38.602 158.362 37.406 156.499 36.532C154.659 35.658 152.681 35.221 150.565 35.221C148.449 35.221 146.46 35.658 144.597 36.532C142.734 37.406 141.089 38.6135 139.663 40.1545C138.26 41.6725 137.156 43.432 136.351 45.433C135.569 47.434 135.178 49.573 135.178 51.85C135.178 54.15 135.581 56.3005 136.386 58.3015C137.191 60.3025 138.295 62.0735 139.698 63.6145C141.124 65.1325 142.757 66.3285 144.597 67.2025C146.46 68.0535 148.449 68.479 150.565 68.479ZM178.78 63.235V41.5H187.198V61.027C187.198 62.384 187.531 63.626 188.198 64.753C188.865 65.857 189.751 66.7425 190.855 67.4095C191.982 68.0535 193.212 68.3755 194.546 68.3755C195.926 68.3755 197.168 68.0535 198.272 67.4095C199.376 66.7425 200.262 65.857 200.929 64.753C201.596 63.626 201.929 62.384 201.929 61.027V41.5H210.347L210.382 76H201.964L201.929 72.8605C200.733 74.1025 199.319 75.0915 197.686 75.8275C196.053 76.5405 194.305 76.897 192.442 76.897C189.935 76.897 187.646 76.2875 185.576 75.0685C183.506 73.8265 181.85 72.182 180.608 70.135C179.389 68.065 178.78 65.765 178.78 63.235ZM217.322 76L217.287 41.5H225.705L225.74 44.5705C226.913 43.3285 228.316 42.351 229.949 41.638C231.582 40.902 233.341 40.534 235.227 40.534C236.492 40.534 237.757 40.718 239.022 41.086L235.71 49.573C234.836 49.228 233.962 49.0555 233.088 49.0555C231.731 49.0555 230.489 49.389 229.362 50.056C228.258 50.7 227.373 51.5855 226.706 52.7125C226.062 53.8165 225.74 55.047 225.74 56.404V76H217.322ZM260.412 76L269.796 27.7H276.765L288.53 58.6465L300.294 27.7H307.263L316.647 76H308.057L302.261 46.123L291.393 74.896H285.632L274.764 46.123L269.003 76H260.412ZM323.046 63.235V41.5H331.464V61.027C331.464 62.384 331.798 63.626 332.465 64.753C333.132 65.857 334.017 66.7425 335.121 67.4095C336.248 68.0535 337.479 68.3755 338.813 68.3755C340.193 68.3755 341.435 68.0535 342.539 67.4095C343.643 66.7425 344.528 65.857 345.195 64.753C345.862 63.626 346.196 62.384 346.196 61.027V41.5H354.614L354.648 76H346.23L346.196 72.8605C345 74.1025 343.585 75.0915 341.952 75.8275C340.319 76.5405 338.571 76.897 336.708 76.897C334.201 76.897 331.913 76.2875 329.843 75.0685C327.773 73.8265 326.117 72.182 324.875 70.135C323.656 68.065 323.046 65.765 323.046 63.235ZM371.732 76.621C369.938 76.506 368.201 76.1495 366.522 75.5515C364.866 74.9305 363.394 74.091 362.106 73.033C360.818 71.975 359.829 70.71 359.139 69.238L366.246 66.202C366.522 66.662 366.971 67.1565 367.592 67.6855C368.213 68.1915 368.949 68.617 369.8 68.962C370.674 69.307 371.628 69.4795 372.663 69.4795C373.537 69.4795 374.365 69.3645 375.147 69.1345C375.952 68.8815 376.596 68.502 377.079 67.996C377.585 67.49 377.838 66.8345 377.838 66.0295C377.838 65.1785 377.539 64.523 376.941 64.063C376.366 63.58 375.63 63.2235 374.733 62.9935C373.859 62.7405 373.008 62.5105 372.18 62.3035C369.995 61.8665 367.96 61.188 366.074 60.268C364.211 59.348 362.704 58.1635 361.554 56.7145C360.427 55.2425 359.864 53.4715 359.864 51.4015C359.864 49.1245 360.462 47.158 361.658 45.502C362.877 43.846 364.452 42.5695 366.384 41.6725C368.339 40.7755 370.444 40.327 372.698 40.327C375.435 40.327 377.942 40.902 380.219 42.052C382.519 43.179 384.336 44.7775 385.67 46.8475L379.011 50.7805C378.689 50.2285 378.241 49.7225 377.666 49.2625C377.091 48.7795 376.435 48.3885 375.699 48.0895C374.963 47.7675 374.193 47.5835 373.388 47.5375C372.353 47.4915 371.41 47.5835 370.559 47.8135C369.708 48.0435 369.018 48.4345 368.489 48.9865C367.983 49.5385 367.73 50.2745 367.73 51.1945C367.73 52.0685 368.075 52.724 368.765 53.161C369.455 53.575 370.283 53.897 371.249 54.127C372.238 54.357 373.181 54.61 374.078 54.886C376.102 55.553 377.999 56.3695 379.77 57.3355C381.564 58.3015 383.002 59.486 384.083 60.889C385.164 62.292 385.681 63.971 385.635 65.926C385.635 68.157 384.968 70.112 383.634 71.791C382.3 73.447 380.575 74.712 378.459 75.586C376.366 76.46 374.124 76.805 371.732 76.621ZM390.731 41.5H399.149V76H390.731V41.5ZM395.009 37.0495C393.767 37.0495 392.72 36.647 391.869 35.842C391.018 35.014 390.593 33.979 390.593 32.737C390.593 31.518 391.018 30.4945 391.869 29.6665C392.72 28.8385 393.755 28.4245 394.974 28.4245C396.193 28.4245 397.217 28.8385 398.045 29.6665C398.896 30.4945 399.321 31.518 399.321 32.737C399.321 33.979 398.907 35.014 398.079 35.842C397.251 36.647 396.228 37.0495 395.009 37.0495ZM428.023 65.6155L435.613 69.721C434.026 71.883 432.037 73.6195 429.645 74.9305C427.253 76.2415 424.642 76.897 421.813 76.897C418.639 76.897 415.741 76.0805 413.119 74.4475C410.52 72.8145 408.439 70.6295 406.875 67.8925C405.334 65.1325 404.563 62.085 404.563 58.75C404.563 56.22 405.012 53.8625 405.909 51.6775C406.806 49.4695 408.036 47.5375 409.6 45.8815C411.187 44.2025 413.027 42.8915 415.12 41.9485C417.213 41.0055 419.444 40.534 421.813 40.534C424.642 40.534 427.253 41.1895 429.645 42.5005C432.037 43.8115 434.026 45.571 435.613 47.779L428.023 51.85C427.218 50.93 426.264 50.217 425.16 49.711C424.079 49.205 422.963 48.952 421.813 48.952C420.157 48.952 418.662 49.412 417.328 50.332C415.994 51.229 414.936 52.425 414.154 53.92C413.372 55.392 412.981 57.002 412.981 58.75C412.981 60.475 413.372 62.085 414.154 63.58C414.936 65.052 415.994 66.2365 417.328 67.1335C418.662 68.0305 420.157 68.479 421.813 68.479C423.009 68.479 424.148 68.226 425.229 67.72C426.31 67.191 427.241 66.4895 428.023 65.6155Z" fill="url(#paint1_linear_207_708)"/>
<defs>
<linearGradient id="paint0_linear_207_708" x1="100" y1="102" x2="-18.991" y2="67.4996" gradientUnits="userSpaceOnUse">
<stop stop-color="#FF8216"/>
<stop offset="1" stop-color="#FF9D48"/>
</linearGradient>
<linearGradient id="paint1_linear_207_708" x1="438" y1="104" x2="208.687" y2="-96.7406" gradientUnits="userSpaceOnUse">
<stop stop-color="#FF8216"/>
<stop offset="1" stop-color="#FF9D48"/>
</linearGradient>
<clipPath id="clip0_207_708">
<rect width="64" height="64" fill="white" transform="translate(18 20)"/>
</clipPath>
</defs>
</svg>
